name analog
datacolumns 19
datarows 43
range 0.47700000000000004 0.498
endheader
time	ground_force_vx	ground_force_vy	ground_force_vz	ground_force_px	ground_force_py	ground_force_pz	l_ground_force_vx	l_ground_force_vy	l_ground_force_vz	l_ground_force_px	l_ground_force_py	l_ground_force_pz	ground_torque_x	ground_torque_y	ground_torque_z	l_ground_torque_x	l_ground_torque_y	l_ground_torque_z
0.47700000000000004	-0.0	-0.0	-0.0	6.27959680557251	26.882551193237305	-197.71176147460935	8.871078491210938	-54.72285461425781	-419.262939453125	-0.0	-0.0	-0.0	-0.0	-0.0	-0.0	73566.375	35744.40625	-4629.3896484375
0.47750000000000004	-0.0	-0.0	-0.0	7.404472351074219	26.183189392089844	-193.3277740478516	8.622306823730469	-53.85704803466797	-413.3955078125	-0.0	-0.0	-0.0	-0.0	-0.0	-0.0	71809.3828125	35297.9609375	-4540.34033203125
0.47800000000000004	-0.0	-0.0	-0.0	8.940069198608398	26.294937133789062	-192.41358947753903	8.639816284179688	-52.868446350097656	-405.015869140625	-0.0	-0.0	-0.0	-0.0	-0.0	-0.0	70640.921875	35332.3046875	-4587.20654296875
0.47850000000000004	-0.0	-0.0	-0.0	10.15239143371582	26.027252197265625	-193.472900390625	7.841536998748779	-53.24179458618164	-399.7048645019531	-0.0	-0.0	-0.0	-0.0	-0.0	-0.0	69364.484375	35298.36328125	-4730.37841796875
0.47900000000000004	-0.0	-0.0	-0.0	10.02784252166748	26.559892654418945	-196.08856201171875	7.114398002624512	-53.2569465637207	-395.1015930175781	-0.0	-0.0	-0.0	-0.0	-0.0	-0.0	68899.90625	35233.390625	-4956.49853515625
0.47950000000000004	-0.0	-0.0	-0.0	9.510076522827148	28.04125213623047	-198.1316070556641	5.74859094619751	-54.12366485595703	-394.4027099609375	-0.0	-0.0	-0.0	-0.0	-0.0	-0.0	68511.359375	35414.63671875	-5278.08056640625
0.48	-0.0	-0.0	-0.0	8.849605560302734	30.055078506469727	-204.6318359375	5.233936309814453	-54.9716911315918	-398.7347106933594	-0.0	-0.0	-0.0	-0.0	-0.0	-0.0	68878.3203125	35410.07421875	-5486.283203125
0.4805	-0.0	-0.0	-0.0	7.921887397766113	31.40954971313477	-212.04925537109372	5.393631935119629	-55.30702590942383	-402.1528930664063	-0.0	-0.0	-0.0	-0.0	-0.0	-0.0	69387.7421875	35501.44140625	-5575.16943359375
0.481	-0.0	-0.0	-0.0	7.118941783905029	32.942481994628906	-217.62857055664065	5.837127208709717	-56.278621673583984	-404.2484436035156	-0.0	-0.0	-0.0	-0.0	-0.0	-0.0	70406.7265625	36003.52734375	-5515.7607421875
0.4815	-0.0	-0.0	-0.0	6.673341751098633	34.08317184448242	-222.78550720214844	6.4932942390441895	-56.950157165527344	-408.5775451660156	-0.0	-0.0	-0.0	-0.0	-0.0	-0.0	70988.5	35889.71875	-5456.24853515625
0.482	-0.0	-0.0	-0.0	6.798015117645264	34.90399169921875	-229.7705841064453	7.735739231109619	-58.539459228515625	-415.1381530761719	-0.0	-0.0	-0.0	-0.0	-0.0	-0.0	72083.5	35924.875	-5449.85888671875
0.4825	-0.0	-0.0	-0.0	6.655751705169678	36.06280899047852	-234.65444946289065	8.94184684753418	-59.9872932434082	-416.5379028320313	-0.0	-0.0	-0.0	-0.0	-0.0	-0.0	72482.5390625	35840.85546875	-5413.73193359375
0.483	-0.0	-0.0	-0.0	6.725647926330566	36.84843063354492	-241.9945373535156	9.669475555419922	-62.0709342956543	-419.0477294921875	-0.0	-0.0	-0.0	-0.0	-0.0	-0.0	73113.3515625	35811.70703125	-5479.111328125
0.4835	-0.0	-0.0	-0.0	5.673088073730469	39.4830207824707	-247.3699951171875	10.413644790649414	-63.64394760131836	-420.7988586425781	-0.0	-0.0	-0.0	-0.0	-0.0	-0.0	73110.8671875	35644.2265625	-5508.1376953125
0.484	-0.0	-0.0	-0.0	4.943047523498535	41.08715438842773	-255.83889770507807	11.034494400024414	-65.4625473022461	-420.3785400390625	-0.0	-0.0	-0.0	-0.0	-0.0	-0.0	73197.7421875	35493.28125	-5520.861328125
0.4845	-0.0	-0.0	-0.0	4.9248881340026855	42.3552360534668	-261.4349365234375	10.749943733215332	-66.22539520263672	-422.6078186035156	-0.0	-0.0	-0.0	-0.0	-0.0	-0.0	73004.6328125	35605.10546875	-5549.513671875
0.485	-0.0	-0.0	-0.0	5.155840873718262	43.67389678955078	-267.6376647949219	11.229766845703123	-67.79471588134766	-422.89447021484375	-0.0	-0.0	-0.0	-0.0	-0.0	-0.0	73078.203125	35551.2734375	-5614.884765625
0.4855	-0.0	-0.0	-0.0	6.0139241218566895	44.81420135498047	-270.1098022460937	11.10714054107666	-67.85200500488281	-422.9666137695313	-0.0	-0.0	-0.0	-0.0	-0.0	-0.0	73104.6484375	35926.00390625	-5758.0419921875
0.486	-0.0	-0.0	-0.0	6.6875715255737305	46.20005798339844	-274.48126220703125	10.929794311523438	-68.5041732788086	-421.9197387695313	-0.0	-0.0	-0.0	-0.0	-0.0	-0.0	72718.5625	35929.82421875	-5611.03369140625
0.4865	-0.0	-0.0	-0.0	8.010401725769043	46.89761352539063	-277.3057556152344	11.66955280303955	-68.73262023925781	-421.5575866699219	-0.0	-0.0	-0.0	-0.0	-0.0	-0.0	72348.4609375	36317.5078125	-5651.48779296875
0.487	-0.0	-0.0	-0.0	9.456314086914062	47.77761459350586	-278.320556640625	12.11281394958496	-68.46769714355469	-419.9709777832031	-0.0	-0.0	-0.0	-0.0	-0.0	-0.0	72005.265625	36295.46875	-5810.5771484375
0.4875	-0.0	-0.0	-0.0	10.25920867919922	48.50968170166016	-279.2914733886719	11.635652542114258	-69.22972869873047	-423.1717529296875	-0.0	-0.0	-0.0	-0.0	-0.0	-0.0	72151.3671875	36248.109375	-5822.12255859375
0.488	-0.0	-0.0	-0.0	11.296634674072266	49.4529914855957	-284.85107421875	10.78975772857666	-69.53186798095703	-426.1678466796875	-0.0	-0.0	-0.0	-0.0	-0.0	-0.0	72725.90625	36771.65625	-6000.71533203125
0.4885	-0.0	-0.0	-0.0	11.972987174987791	50.39152145385742	-288.82684326171875	10.224985122680664	-70.35979461669922	-429.3650207519531	-0.0	-0.0	-0.0	-0.0	-0.0	-0.0	73541.75	36952.45703125	-6132.3369140625
0.489	-0.0	-0.0	-0.0	12.860172271728516	51.49855041503906	-292.63702392578125	9.048500061035156	-70.77809143066406	-434.8218994140625	-0.0	-0.0	-0.0	-0.0	-0.0	-0.0	74760.203125	37504.2578125	-6234.7314453125
0.4895	-0.0	-0.0	-0.0	12.733037948608398	52.07101821899414	-297.37750244140625	8.959789276123047	-70.26670837402344	-441.1061401367188	-0.0	-0.0	-0.0	-0.0	-0.0	-0.0	75733.84375	37975.31640625	-6382.97119140625
0.49	-0.0	-0.0	-0.0	12.20844841003418	52.54350662231445	-299.3685607910156	8.193601608276367	-70.55027770996094	-445.5174560546875	-0.0	-0.0	-0.0	-0.0	-0.0	-0.0	76572.78125	38628.41015625	-6404.2822265625
0.4905	-0.0	-0.0	-0.0	11.68657684326172	52.92446517944336	-303.8100280761719	6.849622249603272	-70.61973571777344	-451.7795715332031	-0.0	-0.0	-0.0	-0.0	-0.0	-0.0	77623.2890625	38841.390625	-6704.50439453125
0.491	-0.0	-0.0	-0.0	11.081157684326172	53.4211311340332	-305.50067138671875	5.607712745666504	-70.6573486328125	-456.168701171875	-0.0	-0.0	-0.0	-0.0	-0.0	-0.0	78462.9375	39642.53515625	-6944.6728515625
0.4915	-0.0	-0.0	-0.0	10.25920867919922	53.77742385864258	-310.9243469238281	4.3658366203308105	-71.01063537597656	-462.2518310546875	-0.0	-0.0	-0.0	-0.0	-0.0	-0.0	79406.4453125	40256.66015625	-7193.62939453125
0.492	-0.0	-0.0	-0.0	9.94736099243164	54.01302337646485	-310.3955993652344	3.2251484394073486	-71.71720886230469	-466.3915710449219	-0.0	-0.0	-0.0	-0.0	-0.0	-0.0	80509.5078125	40714.00390625	-7355.68115234375
0.4925	-0.0	-0.0	-0.0	9.386351585388184	54.53559875488281	-316.5738220214844	2.1359739303588867	-71.6860122680664	-471.9777221679688	-0.0	-0.0	-0.0	-0.0	-0.0	-0.0	81327.390625	41062.359375	-7593.8095703125
0.493	-0.0	-0.0	-0.0	9.49489402770996	54.81520080566406	-318.81646728515625	1.6471705436706543	-71.78644561767578	-476.2427978515625	-0.0	-0.0	-0.0	-0.0	-0.0	-0.0	82642.0390625	41431.01953125	-7668.001953125
0.4935	-0.0	-0.0	-0.0	9.436964988708496	54.52847671508789	-322.9468078613281	1.673697590827942	-71.97042846679688	-481.13092041015625	-0.0	-0.0	-0.0	-0.0	-0.0	-0.0	83490.71875	41666.33984375	-7577.47216796875
0.494	-0.0	-0.0	-0.0	9.347679138183594	54.222198486328125	-322.4988708496094	2.2177696228027344	-71.43302154541016	-486.9146118164063	-0.0	-0.0	-0.0	-0.0	-0.0	-0.0	84449.6328125	41905.171875	-7451.9384765625
0.4945	-0.0	-0.0	-0.0	8.622657775878906	54.3613510131836	-325.1123046875	2.7081282138824463	-71.28366088867188	-489.9359436035156	-0.0	-0.0	-0.0	-0.0	-0.0	-0.0	85485.2109375	42158.1953125	-7287.6396484375
0.495	-0.0	-0.0	-0.0	8.23800277709961	54.47818756103516	-330.2232666015625	3.371009826660156	-71.11002349853516	-492.1510620117188	-0.0	-0.0	-0.0	-0.0	-0.0	-0.0	85959.765625	42033.6171875	-7158.2109375
0.4955	-0.0	-0.0	-0.0	7.591684818267822	53.93267822265625	-334.3838195800781	4.07202672958374	-71.03002166748047	-493.5812072753906	-0.0	-0.0	-0.0	-0.0	-0.0	-0.0	86426.578125	42281.3359375	-6876.9501953125
0.496	-0.0	-0.0	-0.0	7.374187469482422	54.34992218017578	-335.640869140625	4.54376745223999	-70.30230712890625	-494.1333312988281	-0.0	-0.0	-0.0	-0.0	-0.0	-0.0	86547.7109375	42254.94921875	-6824.30126953125
0.4965	-0.0	-0.0	-0.0	6.145183563232422	54.954063415527344	-338.8185729980469	4.790382385253906	-69.92097473144531	-492.9613952636719	-0.0	-0.0	-0.0	-0.0	-0.0	-0.0	86327.6875	41950.765625	-6823.97900390625
0.497	-0.0	-0.0	-0.0	5.629932880401611	55.89485931396485	-341.8799133300781	4.533793926239014	-69.58743286132812	-490.55804443359375	-0.0	-0.0	-0.0	-0.0	-0.0	-0.0	86094.828125	41735.75390625	-6794.37353515625
0.4975	-0.0	-0.0	-0.0	4.80742883682251	56.30068588256836	-346.7835998535156	4.750807285308838	-68.6651611328125	-487.6873168945313	-0.0	-0.0	-0.0	-0.0	-0.0	-0.0	85674.9296875	41637.078125	-6596.15478515625
0.498	-0.0	-0.0	-0.0	3.380362272262573	57.97451019287109	-350.8627624511719	4.356470108032227	-68.89091491699219	-485.669921875	-0.0	-0.0	-0.0	-0.0	-0.0	-0.0	85055.21875	41666.5390625	-6794.24462890625
